<?xml version="1.0" encoding="iso-8859-1"?>
<!-- Generator: Adobe Illustrator 19.0.0, SVG Export Plug-In . SVG Version: 6.00 Build 0)  -->
<svg version="1.1" id="Capa_1" xmlns="http://www.w3.org/2000/svg" xmlns:xlink="http://www.w3.org/1999/xlink" x="0px" y="0px"
	 viewBox="0 0 512 512" style="enable-background:new 0 0 512 512;" xml:space="preserve">
<rect x="230.533" y="130.424" transform="matrix(-0.7071 0.7071 -0.7071 -0.7071 616.9841 255.5717)" style="fill:#778099;" width="50.058" height="250.288"/>
<rect x="235.061" y="141.36" transform="matrix(-0.7071 0.7071 -0.7071 -0.7071 606.0491 281.9741)" style="fill:#66708D;" width="19.129" height="250.288"/>
<rect x="82.624" y="82.628" transform="matrix(-0.7071 0.7071 -0.7071 -0.7071 360.6078 149.3741)" style="fill:#EEEFF2;" width="133.487" height="133.487"/>
<rect x="47.952" y="166.362" transform="matrix(-0.7071 -0.7071 0.7071 -0.7071 65.6479 395.3125)" style="fill:#DDDFE6;" width="133.487" height="35.396"/>
<g>
	
		<rect x="268.552" y="75.727" transform="matrix(-0.7071 0.7071 -0.7071 -0.7071 746.781 -57.7579)" style="fill:#56ACE1;" width="233.602" height="100.115"/>
	
		<rect x="8.979" y="335.297" transform="matrix(0.7071 -0.7071 0.7071 0.7071 -235.6463 201.8076)" style="fill:#56ACE1;" width="233.602" height="100.115"/>
</g>
<path style="fill:#FFCF1A;" d="M308.66,308.659c-31.619,31.619-39.629,77.902-24.04,116.955l140.996-140.996
	C386.561,269.03,340.279,277.04,308.66,308.659z"/>
<path style="fill:#FFBE35;" d="M330.918,296.089c3.977-3.976,8.187-7.579,12.584-10.808c-12.665,5.289-24.535,13.071-34.842,23.378
	c-31.619,31.619-39.629,77.902-24.04,116.955l19.702-19.703C292.344,368.467,301.203,325.804,330.918,296.089z"/>
<polygon style="fill:#FFE88F;" points="332.257,379.452 403.05,403.05 379.452,332.257 "/>
<path d="M388.033,333.264l43.114-43.114c3.907-3.909,2.491-10.749-2.631-12.796c-32.739-13.068-68.891-10.435-98.811,5.89
	l-21.781-21.782l18.435-18.435l6.268,6.268c3.014,3.013,8.048,3.013,11.061,0L508.871,84.114c3.055-3.056,3.055-8.007,0-11.062
	L438.077,2.258c-3.011-3.011-8.05-3.011-11.061,0L261.833,167.442c-3.012,3.013-3.012,8.05,0,11.062l6.268,6.268l-18.436,18.435
	l-24.334-24.334l23.966-23.966c3.055-3.056,3.055-8.007,0-11.062l-94.39-94.391c-3.011-3.011-8.05-3.011-11.061,0l-94.391,94.391
	c-3.055,3.056-3.055,8.007,0,11.062l94.391,94.391c3.011,3.011,8.05,3.011,11.061,0l23.966-23.966l24.334,24.334l-18.435,18.436
	l-6.268-6.269c-3.055-3.054-8.007-3.054-11.061,0L2.26,427.015c-3.012,3.013-3.012,8.05,0,11.062l70.793,70.792
	c3.014,3.013,8.048,3.013,11.061,0l165.183-165.183c3.012-3.013,3.012-8.05,0-11.062l-6.268-6.268l18.435-18.435l21.781,21.781
	c-16.325,29.92-18.958,66.072-5.891,98.811c2.043,5.118,8.889,6.536,12.795,2.631l43.115-43.115l67.312,22.439
	c6,1.998,11.891-3.9,9.894-9.894L388.033,333.264z M338.156,232.704l-6.262-6.262c-0.002-0.002-0.003-0.004-0.005-0.006
	c-0.002-0.002-0.004-0.003-0.006-0.005l-18.062-18.062l30.234-30.234l24.334,24.334L338.156,232.704z M349.955,101.443
	l24.334,24.334l-30.234,30.234l-24.334-24.334L349.955,101.443z M391.25,60.147l24.336,24.334l-30.234,30.234l-24.334-24.334
	L391.25,60.147z M420.749,150.113l-24.336-24.334l30.234-30.234l24.336,24.334L420.749,150.113z M385.352,136.839l24.336,24.334
	l-30.234,30.234l-24.334-24.334L385.352,136.839z M462.045,108.817l-24.336-24.334l30.234-30.235l24.336,24.336L462.045,108.817z
	 M432.547,18.851l24.334,24.334l-30.234,30.235l-24.335-24.334L432.547,18.851z M308.66,142.739l24.334,24.334l-30.234,30.234
	l-18.057-18.056c-0.003-0.003-0.006-0.007-0.009-0.01c-0.003-0.003-0.006-0.006-0.01-0.009l-6.258-6.258L308.66,142.739z
	 M279.163,195.834l36.134,36.134l-18.435,18.435l-36.134-36.134L279.163,195.834z M149.376,66.046l18.436,18.436l-12.204,12.205
	c-2.848,2.848-3.037,7.55-0.416,10.612c2.924,3.415,8.296,3.629,11.477,0.448l12.204-12.204l24.336,24.334l-83.329,83.329
	l-24.334-24.334l46.618-46.618c3.055-3.056,3.055-8.007,0-11.062c-3.055-3.054-8.007-3.054-11.061,0l-46.619,46.619l-18.435-18.436
	L149.376,66.046z M149.376,232.704l-18.436-18.436l83.329-83.329l18.435,18.436L149.376,232.704z M172.973,278.425l24.334,24.335
	l-30.234,30.234l-24.334-24.335L172.973,278.425z M161.175,409.687l-24.334-24.335l30.234-30.234l24.336,24.334L161.175,409.687z
	 M119.879,450.983l-24.334-24.334l30.234-30.234l24.334,24.334L119.879,450.983z M90.382,361.017l24.336,24.334l-30.234,30.234
	l-24.336-24.334L90.382,361.017z M125.778,374.289l-24.334-24.334l30.234-30.234l24.334,24.334L125.778,374.289z M49.086,402.313
	l24.336,24.335l-30.234,30.234l-24.336-24.335L49.086,402.313z M78.583,492.277l-24.334-24.334l30.234-30.234l24.334,24.334
	L78.583,492.277z M202.471,368.391l-24.335-24.334l30.234-30.234l24.335,24.335L202.471,368.391z M231.968,315.296l-18.059-18.059
	c-0.002-0.002-0.004-0.005-0.007-0.008c-0.003-0.003-0.005-0.004-0.008-0.007l-18.058-18.058l18.435-18.435l36.134,36.134
	L231.968,315.296z M189.934,214.269l24.334-24.334L316.195,291.86c-4.581,3.394-8.951,7.152-13.066,11.268
	c-4.115,4.115-7.875,8.486-11.268,13.067L189.934,214.269z M288.048,411.125c-9.117-34.384,0.554-71.346,26.142-96.934
	c19.26-19.261,44.966-29.502,71.164-29.502c8.608,0,17.268,1.105,25.771,3.36L288.048,411.125z M345.632,375.665l30.035-30.035
	l15.017,45.052L345.632,375.665z"/>
<path d="M504.178,412.927c-4.32,0-7.822,3.502-7.822,7.822c0,20.195-7.864,39.182-22.144,53.463
	c-14.281,14.281-33.268,22.145-53.464,22.145c-4.32,0-7.822,3.501-7.822,7.822s3.502,7.822,7.822,7.822
	c24.374,0,47.29-9.492,64.525-26.727C502.508,468.038,512,445.122,512,420.749C512,416.428,508.498,412.927,504.178,412.927z"/>
<path d="M420.748,478.628c15.461,0,29.995-6.021,40.928-16.953c10.932-10.932,16.952-25.466,16.952-40.927
	c0-4.321-3.502-7.822-7.822-7.822c-4.32,0-7.822,3.501-7.822,7.822c0,11.282-4.393,21.888-12.371,29.866
	s-18.584,12.371-29.866,12.371c-4.32,0-7.822,3.501-7.822,7.822S416.428,478.628,420.748,478.628z"/>
<path d="M420.748,445.256c6.546,0,12.701-2.549,17.329-7.178c4.628-4.629,7.178-10.783,7.178-17.329
	c0-4.321-3.502-7.822-7.822-7.822s-7.822,3.501-7.822,7.822c0,2.368-0.922,4.594-2.596,6.268c-1.674,1.675-3.9,2.597-6.269,2.597
	c-4.32,0-7.822,3.501-7.822,7.822C412.926,441.755,416.428,445.256,420.748,445.256z"/>
<g>
</g>
<g>
</g>
<g>
</g>
<g>
</g>
<g>
</g>
<g>
</g>
<g>
</g>
<g>
</g>
<g>
</g>
<g>
</g>
<g>
</g>
<g>
</g>
<g>
</g>
<g>
</g>
<g>
</g>
</svg>
